PathFileType	4	(X/Y/Z)	TVC_36_Cal_03_0_static_RCNL2025.trc
DataRate	CameraRate	NumFrames	NumMarkers	Units	OrigDataRate	OrigDataStartFrame	OrigNumFrames
100	100	11	27	mm	100	1	139
Frame#	Time	R_Shoulder			L_Shoulder			C7			J_Notch			R_Elbow			L_Elbow			R_Wrist			L_Wrist			R_Asis			L_Asis			R_Psis			L_Psis			Sacral			Thoracic			Sternum			R_Thigh_Lateral			R_Knee_Lateral			R_Shank_Lateral			R_Ankle_Lateral			R_Heel			R_Toe			L_Thigh_Lateral			L_Knee_Lateral			L_Shank_Lateral			L_Ankle_Lateral			L_Heel			L_Toe		
		X1	Y1	Z1	X2	Y2	Z2	X3	Y3	Z3	X4	Y4	Z4	X5	Y5	Z5	X6	Y6	Z6	X7	Y7	Z7	X8	Y8	Z8	X9	Y9	Z9	X10	Y10	Z10	X11	Y11	Z11	X12	Y12	Z12	X13	Y13	Z13	X14	Y14	Z14	X15	Y15	Z15	X16	Y16	Z16	X17	Y17	Z17	X18	Y18	Z18	X19	Y19	Z19	X20	Y20	Z20	X21	Y21	Z21	X22	Y22	Z22	X23	Y23	Z23	X24	Y24	Z24	X25	Y25	Z25	X26	Y26	Z26	X27	Y27	Z27
1	0.00000000	-235.446579	1387.077393	42.743511	-355.928986	1373.149902	-299.745178	-342.985291	1433.610229	-108.560722	-188.313187	1317.828979	-151.501114	-229.180435	1115.813232	174.137009	-322.917084	1074.708984	-410.025146	-194.699661	897.046844	127.110561	-216.758102	884.273132	-391.013733	-188.214111	899.162598	-27.890539	-288.603638	902.785400	-269.006042	-376.942444	931.825195	-37.983948	-410.502045	924.938293	-114.008965	-393.722244	928.381744	-75.996456	-378.232147	1153.289917	-87.000893	-154.290695	1166.778931	-176.777954	-235.026367	633.315735	50.574852	-315.061829	459.972900	-3.978859	-337.654938	260.047821	24.275339	-342.661774	69.024597	-56.572189	-391.398712	55.439651	-103.314079	-218.206848	39.980377	-97.011284	-343.760834	672.319031	-357.644684	-313.123779	466.737518	-316.558105	-374.678253	274.546783	-330.480469	-308.271393	69.912895	-316.745911	-314.459076	51.058296	-253.850922	-193.061554	44.913349	-378.121674
2	0.01000000	-235.376602	1387.097656	43.026917	-355.854675	1373.150879	-299.563843	-343.131714	1433.679810	-108.325508	-188.116898	1317.993652	-151.385223	-228.849960	1115.749634	174.291229	-322.833618	1074.778442	-409.921478	-194.469948	897.002930	127.100227	-216.696228	884.329346	-391.017975	-187.808746	898.695496	-27.802542	-288.369293	902.753418	-268.972687	-376.845459	931.773254	-37.908779	-410.254456	924.822571	-114.036331	-393.549957	928.297913	-75.972555	-378.075531	1153.227661	-86.882744	-154.120911	1166.880737	-176.716156	-235.037140	633.329712	50.606892	-315.070374	459.926971	-3.961132	-337.621826	260.078949	24.266243	-342.739319	68.974716	-56.647659	-391.473755	55.463661	-103.302238	-218.160049	39.897675	-97.002777	-343.478668	672.383911	-357.588013	-312.926636	466.727661	-316.529785	-374.398926	274.748169	-330.692322	-308.225739	69.931015	-316.761139	-314.481537	51.003284	-253.832214	-192.992813	44.956741	-378.043610
3	0.02000000	-235.281448	1387.076294	43.234787	-355.797974	1373.221558	-299.334290	-343.186768	1433.632690	-108.056694	-188.110123	1318.053955	-151.217667	-228.727722	1115.774048	174.482300	-322.698334	1074.857666	-409.877472	-194.392929	896.868866	127.407406	-216.738159	884.435394	-390.987518	-188.019730	899.016113	-27.661993	-288.016266	902.864014	-268.915466	-376.677399	931.777100	-37.798367	-410.058685	924.805969	-113.944725	-393.368042	928.291534	-75.871546	-377.901184	1152.976929	-86.682274	-153.958969	1166.964233	-176.424149	-234.981934	633.294739	50.631832	-315.142822	459.879944	-3.874453	-337.567291	260.018677	24.272787	-342.741669	68.956253	-56.548855	-391.497986	55.494141	-103.262810	-218.197250	39.927067	-96.986641	-343.226898	672.421021	-357.555298	-312.787109	466.672180	-316.542358	-374.508789	274.548889	-330.509094	-308.218414	69.932945	-316.766937	-314.485565	50.980785	-253.828918	-192.953690	44.892372	-377.988464
4	0.03000000	-235.158646	1387.072998	43.409908	-355.735687	1373.253906	-299.142700	-343.163422	1433.494507	-107.802544	-188.070862	1318.132568	-151.004105	-228.528320	1115.734619	174.591278	-322.295410	1075.156250	-409.983795	-194.182571	896.822174	127.429527	-216.616631	884.509399	-390.940964	-187.876785	899.106506	-27.486855	-287.731598	902.868408	-268.832153	-376.491974	931.673584	-37.811031	-409.910217	924.717041	-113.940529	-393.201096	928.195312	-75.875780	-377.782471	1153.020264	-86.515152	-153.745575	1167.045288	-176.225403	-235.012451	633.260132	50.727909	-315.087646	459.841766	-3.887056	-337.499969	260.018555	24.332895	-342.737732	68.963089	-56.547920	-391.453369	55.504269	-103.288513	-218.240036	39.864510	-96.940674	-342.739502	672.209351	-357.710663	-312.630951	466.720978	-316.594910	-374.254333	274.824249	-330.695831	-308.297119	69.964935	-316.672089	-314.556274	51.093273	-253.790894	-192.957855	44.889000	-377.952454
5	0.04000000	-235.174850	1387.118652	43.582699	-355.617981	1373.263306	-298.935974	-343.123444	1433.512573	-107.600868	-187.970551	1318.166138	-150.786972	-228.204330	1115.681274	174.742950	-322.062347	1075.291992	-409.990021	-193.928558	896.735687	127.707527	-216.440666	884.568542	-391.033585	-187.436111	898.742554	-27.675264	-287.596405	902.888184	-268.753448	-376.203033	931.758179	-37.759178	-409.852997	924.790161	-113.832291	-393.028015	928.274170	-75.795734	-377.627777	1152.917236	-86.485687	-153.615753	1167.147705	-176.105270	-235.071838	633.003418	50.694901	-314.990112	459.876465	-3.803164	-337.540039	260.070587	24.335958	-342.737854	68.962708	-56.510593	-391.445312	55.523632	-103.265419	-218.100388	39.886429	-96.939926	-342.455414	672.277954	-357.758057	-312.506653	466.752991	-316.632996	-374.205841	274.754181	-330.676422	-308.225952	70.019798	-316.753235	-314.554230	51.083546	-253.775513	-192.910324	44.976017	-377.938141
6	0.05000000	-235.061325	1387.195312	43.780418	-355.522034	1373.307129	-298.773712	-343.053375	1433.387329	-107.400284	-187.823227	1318.269897	-150.665756	-228.099533	1115.726074	174.941544	-322.089081	1075.250366	-409.769531	-193.876572	896.899048	127.517082	-216.276260	884.669952	-391.053513	-187.172958	898.792969	-27.680817	-287.430939	902.896118	-268.644958	-376.118134	931.771790	-37.685112	-409.665924	924.684021	-113.762474	-392.892029	928.227905	-75.723793	-377.492645	1152.924561	-86.332970	-153.383118	1167.293823	-175.903458	-235.108505	633.130493	50.827240	-314.973114	459.906921	-3.783070	-337.566498	260.048401	24.384161	-342.685547	69.080147	-56.527096	-391.396759	55.427380	-103.357018	-218.080551	39.898567	-96.940628	-341.785400	671.822021	-358.343597	-312.346130	466.760071	-316.580048	-374.090637	274.969055	-330.784332	-308.168640	70.029839	-316.733337	-314.488831	51.096569	-253.814240	-192.943909	44.936329	-377.962219
7	0.06000000	-235.059128	1387.136108	44.012844	-355.411896	1373.335815	-298.556274	-343.176788	1433.391357	-107.064545	-187.673355	1318.364502	-150.429916	-227.932495	1115.713013	175.059174	-322.194275	1075.279419	-409.489349	-193.671227	896.896942	127.659256	-216.061287	884.761139	-391.096497	-187.036636	898.838501	-27.631191	-287.312378	902.951721	-268.508789	-376.128296	931.771423	-37.554779	-409.559509	924.731689	-113.676765	-392.843903	928.251556	-75.615772	-377.483673	1152.952515	-86.217789	-153.229660	1167.299805	-175.653595	-234.966721	633.360596	51.013115	-314.927185	459.967590	-3.722049	-337.539795	260.042419	24.479370	-342.748749	69.061546	-56.454514	-391.429657	55.509422	-103.279938	-218.484253	39.824280	-96.826347	-341.648163	672.381714	-357.961609	-312.217804	466.783569	-316.599365	-374.010773	274.973846	-330.775269	-308.221283	70.080223	-316.739288	-314.479767	51.095921	-253.818970	-193.005875	44.976116	-378.011017
8	0.07000000	-235.023499	1387.126343	44.174728	-355.304810	1373.329712	-298.393433	-343.136505	1433.402466	-106.866615	-187.587646	1318.362915	-150.242691	-227.970093	1115.661255	175.225845	-322.122894	1075.344482	-409.461578	-193.620071	896.814270	127.843746	-215.843735	884.843994	-391.059174	-187.447525	898.970825	-27.288433	-287.002747	902.985718	-268.481567	-376.115814	931.892700	-37.455360	-409.429260	924.810547	-113.656364	-392.772537	928.351624	-75.555862	-377.488678	1152.878662	-86.065369	-153.137268	1167.372314	-175.503220	-234.808777	633.481567	51.091099	-314.905579	459.898926	-3.661691	-337.594025	259.976868	24.543901	-342.773560	68.960678	-56.492039	-391.457153	55.489765	-103.277222	-218.150040	39.757965	-96.902702	-341.748474	672.457153	-357.695740	-312.000946	466.742615	-316.582031	-374.068756	274.719147	-330.570068	-308.200409	70.073578	-316.668671	-314.500702	51.088223	-253.790039	-192.918167	44.983974	-377.948914
9	0.08000000	-234.944077	1387.134766	44.319454	-354.985229	1373.317261	-298.438660	-343.032318	1433.391235	-106.661644	-187.507767	1318.445557	-150.029282	-227.885162	1115.671021	175.383438	-321.790802	1075.573242	-409.690186	-193.546150	896.800781	127.997967	-215.599403	884.932312	-391.126450	-187.107590	898.843872	-27.694004	-286.913361	903.032410	-268.306458	-375.979156	931.864929	-37.419800	-409.191406	924.782410	-113.603081	-392.585281	928.323669	-75.511440	-377.491547	1152.941772	-85.946564	-152.977112	1167.435791	-175.271820	-235.052002	632.899597	51.021744	-314.923553	459.890930	-3.550202	-337.527008	259.817169	24.506416	-342.755035	69.046402	-56.470459	-391.426239	55.479145	-103.252884	-218.027573	39.757702	-96.828545	-341.517792	672.642273	-357.617767	-311.926910	466.793976	-316.574829	-373.889038	274.984375	-330.706970	-308.194183	70.073143	-316.686371	-314.481964	51.113113	-253.814468	-193.036514	44.934864	-378.028076
10	0.09000000	-234.927872	1387.179077	44.559471	-354.848969	1373.302368	-298.297119	-342.748749	1433.415527	-106.630920	-187.426224	1318.527222	-149.809998	-227.850983	1115.715088	175.501358	-321.555878	1075.466309	-409.460236	-193.571144	896.776825	128.058502	-215.306412	885.027466	-391.175034	-187.394516	898.992981	-26.877630	-286.733887	903.040222	-268.139374	-375.906250	931.898376	-37.343853	-409.142029	924.787476	-113.482300	-392.524139	928.342926	-75.413076	-377.412811	1152.941772	-85.895767	-152.854156	1167.511963	-175.095932	-235.045532	633.202942	51.254967	-315.026886	459.848633	-3.514671	-337.622406	259.941986	24.645979	-342.753448	69.078117	-56.477360	-391.424164	55.550648	-103.182663	-217.997849	39.742977	-96.854950	-341.352905	672.525452	-357.656525	-311.725128	466.874481	-316.492798	-373.859741	275.064178	-330.724396	-308.183502	70.053299	-316.708771	-314.472687	51.127636	-253.823349	-192.966370	44.923130	-377.990143
11	0.10000000	-234.932785	1387.119263	44.672085	-354.857544	1373.448608	-298.043030	-342.616882	1433.268066	-106.595726	-187.187302	1318.611450	-149.643936	-227.888031	1115.770020	175.631622	-321.306335	1075.661133	-409.643921	-193.400513	896.955902	128.139416	-215.061729	885.147644	-391.151779	-187.688644	898.908020	-26.717039	-286.606476	902.903076	-267.847595	-375.881226	931.895203	-37.249557	-409.090515	924.839050	-113.411278	-392.485870	928.367126	-75.330418	-377.220215	1152.889893	-85.896202	-152.628952	1167.613403	-174.983032	-235.207153	632.878418	51.254326	-315.114258	459.816254	-3.434484	-337.794067	259.985901	24.807831	-342.816010	69.073509	-56.542309	-391.467529	55.517288	-103.205170	-218.362885	39.740429	-96.735420	-341.149200	672.567932	-357.654938	-311.637085	466.923187	-316.515747	-373.826660	275.119965	-330.749695	-308.204102	70.024986	-316.708710	-314.484039	51.136585	-253.843857	-192.891464	45.003002	-377.947479
